<?xml version="1.0" standalone="no"?><!DOCTYPE svg PUBLIC "-//W3C//DTD SVG 1.1//EN" "http://www.w3.org/Graphics/SVG/1.1/DTD/svg11.dtd"><svg class="icon" width="200px" height="200.00px" viewBox="0 0 1024 1024" version="1.1" xmlns="http://www.w3.org/2000/svg"><path d="M837.818182 325.818182h-209.454546c13.963636 0 23.272727 9.309091 23.272728 23.272727v418.909091c0 13.963636-9.309091 23.272727-23.272728 23.272727s-23.272727-9.309091-23.272727-23.272727V349.090909c0-13.963636 9.309091-23.272727 23.272727-23.272727H395.636364c13.963636 0 23.272727 9.309091 23.272727 23.272727v418.909091c0 13.963636-9.309091 23.272727-23.272727 23.272727s-23.272727-9.309091-23.272728-23.272727V349.090909c0-13.963636 9.309091-23.272727 23.272728-23.272727H186.181818c-13.963636 0-23.272727 9.309091-23.272727 23.272727v581.818182c0 51.2 41.890909 93.090909 93.090909 93.090909h512c51.2 0 93.090909-41.890909 93.090909-93.090909V349.090909c0-13.963636-9.309091-23.272727-23.272727-23.272727zM954.181818 186.181818h-162.909091V93.090909c0-51.2-41.890909-93.090909-93.090909-93.090909H325.818182c-51.2 0-93.090909 41.890909-93.090909 93.090909v93.090909H69.818182c-13.963636 0-23.272727 9.309091-23.272727 23.272727s9.309091 23.272727 23.272727 23.272728h884.363636c13.963636 0 23.272727-9.309091 23.272727-23.272728s-9.309091-23.272727-23.272727-23.272727z" fill="#707070" /></svg>